<svg width="778.4456298828125px" height="271.62939453125px" xmlns="http://www.w3.org/2000/svg" viewBox="-139.22281494140623 -60.814697265625 778.4456298828125 271.62939453125" style="background: none;" preserveAspectRatio="xMidYMid"><defs><linearGradient id="editing-shadow-gradient1" x1="0" x2="0" y1="0" y2="1"><stop offset="0" stop-color="#000000" stop-opacity="0"></stop><stop offset="0.2" stop-color="#000000" stop-opacity="0"></stop><stop offset="1" stop-color="#000000" stop-opacity="1"></stop></linearGradient><linearGradient id="editing-shadow-gradient2" x1="-0.2547095802227721" x2="1.2547095802227721" y1="-0.15605902899050716" y2="1.1560590289905073"><stop offset="0" stop-color="#ffffff"></stop><stop offset="1" stop-color="#e0b72c"></stop></linearGradient><filter id="editing-shadow" x="-100%" y="-100%" width="300%" height="300%"><feGaussianBlur stdDeviation="2"></feGaussianBlur><feComposite operator="in" in2="SourceGraphic"></feComposite><feGaussianBlur stdDeviation="1"></feGaussianBlur></filter></defs><g transform="translate(250,75)"><g transform="translate(-34.2, -1.2)"><g transform="skewX(45)"><g filter="url(#editing-shadow)"><g transform="translate(-215.6482367515564, 46.75)"><path d="M42.68-78.65L42.68-78.65Q53.13-78.65 59.79-72.98L59.79-72.98L59.79-72.98Q66.44-67.32 66.44-55.99L66.44-55.99L66.44-55.99Q66.44-48.62 62.42-42.08L62.42-42.08L62.42-42.08Q58.41-35.53 51.81-30.75L51.81-30.75L51.81-30.75Q45.21-25.96 37.51-23.87L37.51-23.87L49.50-9.24L49.50-9.24Q52.69-6.27 55.88-6.27L55.88-6.27L55.88-6.27Q58.52-6.27 61.27-8.25L61.27-8.25L61.27-8.25Q64.02-10.23 66.88-13.09L66.88-13.09L68.53-11.66L68.53-11.66Q68.09-11.11 65.17-7.21L65.17-7.21L65.17-7.21Q62.26-3.30 58.47-0.77L58.47-0.77L58.47-0.77Q54.67 1.76 51.04 1.76L51.04 1.76L51.04 1.76Q47.96 1.76 45.16-0.17L45.16-0.17L45.16-0.17Q42.35-2.09 39.05-6.27L39.05-6.27L25.85-22.44L26.51-25.41L26.51-25.41Q33.88-26.18 40.65-29.98L40.65-29.98L40.65-29.98Q47.41-33.77 51.59-40.04L51.59-40.04L51.59-40.04Q55.77-46.31 55.77-53.90L55.77-53.90L55.77-53.90Q55.77-62.15 50.77-67.10L50.77-67.10L50.77-67.10Q45.76-72.05 35.97-72.05L35.97-72.05L35.97-72.05Q28.38-72.05 19.96-68.47L19.96-68.47L19.96-68.47Q11.55-64.90 5.28-59.18L5.28-59.18L3.19-61.49L3.19-61.49Q11.22-68.97 21.95-73.81L21.95-73.81L21.95-73.81Q32.67-78.65 42.68-78.65L42.68-78.65ZM20.02-62.70L20.02-2.42L9.90 1.65L9.90-58.85L20.02-62.70ZM90.86-91.74L87.12-66.11L83.49-64.79L78.98-87.67L90.86-91.74ZM90.75-54.56L90.75-9.24L90.75-9.24Q90.75-7.59 91.58-6.54L91.58-6.54L91.58-6.54Q92.40-5.50 93.94-5.50L93.94-5.50L93.94-5.50Q95.15-5.50 96.64-6.60L96.64-6.60L96.64-6.60Q98.12-7.70 99.66-9.79L99.66-9.79L101.42-8.14L101.42-8.14Q98.89-3.41 95.31-1.43L95.31-1.43L95.31-1.43Q91.74 0.55 88.77 0.55L88.77 0.55L88.77 0.55Q84.81 0.55 82.67-1.98L82.67-1.98L82.67-1.98Q80.52-4.51 80.52-10.56L80.52-10.56L80.52-50.60L90.75-54.56ZM118.91-8.69L118.91-8.69Q121.55-9.90 124.96-10.45L124.96-10.45L124.96-10.45Q128.37-11 131.45-11L131.45-11L131.45-11Q133.10-11 137.06-10.78L137.06-10.78L137.06-10.78Q140.25-10.45 142.89-10.45L142.89-10.45L142.89-10.45Q149.93-10.45 155.21-12.43L155.21-12.43L146.52-0.33L146.52-0.33Q144.98 0.77 142.89 0.77L142.89 0.77L142.89 0.77Q140.69 0.77 137.78 0.22L137.78 0.22L137.78 0.22Q134.86-0.33 133.98-0.44L133.98-0.44L133.98-0.44Q127.38-1.76 124.63-1.76L124.63-1.76L124.63-1.76Q117.15-1.76 108.13 0.99L108.13 0.99L106.70-0.88L140.69-44.99L140.14-45.87L140.14-45.87Q136.40-43.89 128.15-43.89L128.15-43.89L128.15-43.89Q125.84-43.89 121.66-44.11L121.66-44.11L121.66-44.11Q118.03-44.44 113.85-44.44L113.85-44.44L113.85-44.44Q112.86-44.44 110.22-44L110.22-44L110.22-44Q107.58-43.56 106.70-43.34L106.70-43.34L115.61-55L115.61-55Q119.24-55.11 124.74-54.45L124.74-54.45L124.74-54.45Q128.59-53.90 131.89-53.90L131.89-53.90L131.89-53.90Q144.98-53.90 152.35-56.32L152.35-56.32L153.12-54.34L118.36-9.24L118.91-8.69ZM225.39-59.07L225.39-59.07Q233.20-55.44 233.20-46.09L233.20-46.09L233.20-46.09Q233.20-43.89 232.71-41.20L232.71-41.20L232.71-41.20Q232.21-38.50 231.44-36.52L231.44-36.52L216.81-1.87L216.81-1.87Q216.26 0.11 213.73 0.11L213.73 0.11L213.73 0.11Q210.87 0.11 210.21-1.98L210.21-1.98L201.19-33.33L189.42-2.20L189.42-2.20Q188.76-0.77 188.16-0.17L188.16-0.17L188.16-0.17Q187.55 0.44 186.23 0.44L186.23 0.44L186.23 0.44Q184.91 0.44 184.25-0.11L184.25-0.11L184.25-0.11Q183.59-0.66 183.15-1.65L183.15-1.65L170.83-40.26L170.83-40.26Q169.95-43.34 168.74-44.55L168.74-44.55L168.74-44.55Q167.53-45.76 165.33-45.76L165.33-45.76L165.33-45.76Q162.80-45.76 160.60-43.56L160.60-43.56L159.39-45.32L159.39-45.32Q161.81-49.72 165.17-52.36L165.17-52.36L165.17-52.36Q168.52-55 172.70-55L172.70-55L172.70-55Q174.79-55 176.11-53.57L176.11-53.57L176.11-53.57Q177.43-52.14 178.20-50.33L178.20-50.33L178.20-50.33Q178.97-48.51 180.40-44.11L180.40-44.11L189.75-14.96L199.32-40.15L195.80-52.25L206.03-56.10L217.69-14.74L224.18-30.47L224.18-30.47Q225.06-32.23 225.06-35.75L225.06-35.75L225.06-35.75Q225.06-39.82 223.03-42.95L223.03-42.95L223.03-42.95Q220.99-46.09 217.36-47.96L217.36-47.96L225.39-59.07ZM270.49-55L270.49-55Q275.88-55 280.67-52.69L280.67-52.69L280.67-52.69Q285.45-50.38 287.65-45.65L287.65-45.65L279.73-41.36L279.73-41.36Q277.97-43.89 274.89-45.92L274.89-45.92L274.89-45.92Q271.81-47.96 268.29-47.96L268.29-47.96L268.29-47.96Q262.68-47.96 258.50-45.05L258.50-45.05L258.50-45.05Q254.32-42.13 252.12-37.18L252.12-37.18L252.12-37.18Q249.92-32.23 249.92-26.18L249.92-26.18L249.92-26.18Q249.92-17.49 252.89-12.04L252.89-12.04L252.89-12.04Q255.86-6.60 262.24-6.60L262.24-6.60L262.24-6.60Q271.26-6.60 274.67-13.86L274.67-13.86L274.67-13.86Q278.08-21.12 278.08-29.70L278.08-29.70L278.08-34.65L287.76-38.72L287.76-9.79L287.76-9.79Q287.76-8.36 288.53-7.04L288.53-7.04L288.53-7.04Q289.30-5.72 290.84-5.72L290.84-5.72L290.84-5.72Q294.03-5.72 296.67-10.12L296.67-10.12L298.32-8.36L298.32-8.36Q297-4.62 293.70-2.04L293.70-2.04L293.70-2.04Q290.40 0.55 287.10 0.55L287.10 0.55L287.10 0.55Q282.37 0.55 280.12-2.97L280.12-2.97L280.12-2.97Q277.86-6.49 277.86-12.32L277.86-12.32L277.64-12.32L277.64-12.32Q274.89-6.49 270.22-2.58L270.22-2.58L270.22-2.58Q265.54 1.32 260.37 1.32L260.37 1.32L260.37 1.32Q251.02 1.32 246.24-5.12L246.24-5.12L246.24-5.12Q241.45-11.55 241.45-22.33L241.45-22.33L241.45-22.33Q241.45-30.91 245.30-38.45L245.30-38.45L245.30-38.45Q249.15-45.98 255.81-50.49L255.81-50.49L255.81-50.49Q262.46-55 270.49-55L270.49-55ZM346.94-55.99L346.94-55.99Q351.34-55.99 352.66-52.74L352.66-52.74L352.66-52.74Q353.98-49.50 353.98-43.78L353.98-43.78L353.98-40.37L353.98-9.24L353.98-9.24Q353.98-8.03 354.75-6.76L354.75-6.76L354.75-6.76Q355.52-5.50 356.95-5.50L356.95-5.50L356.95-5.50Q358.82-5.50 360.14-6.71L360.14-6.71L360.14-6.71Q361.46-7.92 362.78-9.79L362.78-9.79L364.43-8.14L364.43-8.14Q362.78-4.62 359.48-2.04L359.48-2.04L359.48-2.04Q356.18 0.55 353.21 0.55L353.21 0.55L353.21 0.55Q348.81 0.55 346.39-2.20L346.39-2.20L346.39-2.20Q343.97-4.95 343.97-10.56L343.97-10.56L343.97-39.71L343.97-39.71Q343.97-41.36 343.64-42.46L343.64-42.46L343.64-42.46Q343.31-43.56 341.99-43.56L341.99-43.56L341.99-43.56Q337.48-43.56 332.75-34.87L332.75-34.87L332.75-34.87Q328.02-26.18 324.67-15.46L324.67-15.46L324.67-15.46Q321.31-4.73 321.31-1.32L321.31-1.32L311.74 1.54L311.74-45.54L311.74-45.54Q311.74-47.08 310.92-48.34L310.92-48.34L310.92-48.34Q310.09-49.61 308.55-49.61L308.55-49.61L308.55-49.61Q305.91-49.61 302.83-44.88L302.83-44.88L301.18-46.64L301.18-46.64Q302.61-50.60 305.91-53.30L305.91-53.30L305.91-53.30Q309.21-55.99 312.51-55.99L312.51-55.99L312.51-55.99Q317.13-55.99 319.38-53.79L319.38-53.79L319.38-53.79Q321.64-51.59 321.64-47.74L321.64-47.74L321.64-18.81L322.08-18.81L322.08-18.81Q325.05-28.60 327.80-35.86L327.80-35.86L327.80-35.86Q330.55-43.12 335.50-49.55L335.50-49.55L335.50-49.55Q340.45-55.99 346.94-55.99L346.94-55.99ZM400.62-55L400.62-55Q406.01-55 410.80-52.69L410.80-52.69L410.80-52.69Q415.58-50.38 417.78-45.65L417.78-45.65L409.86-41.36L409.86-41.36Q408.10-43.89 405.02-45.92L405.02-45.92L405.02-45.92Q401.94-47.96 398.42-47.96L398.42-47.96L398.42-47.96Q392.81-47.96 388.63-45.05L388.63-45.05L388.63-45.05Q384.45-42.13 382.25-37.18L382.25-37.18L382.25-37.18Q380.05-32.23 380.05-26.18L380.05-26.18L380.05-26.18Q380.05-17.49 383.02-12.04L383.02-12.04L383.02-12.04Q385.99-6.60 392.37-6.60L392.37-6.60L392.37-6.60Q401.39-6.60 404.80-13.86L404.80-13.86L404.80-13.86Q408.21-21.12 408.21-29.70L408.21-29.70L408.21-34.65L417.89-38.72L417.89-9.79L417.89-9.79Q417.89-8.36 418.66-7.04L418.66-7.04L418.66-7.04Q419.43-5.72 420.97-5.72L420.97-5.72L420.97-5.72Q424.16-5.72 426.80-10.12L426.80-10.12L428.45-8.36L428.45-8.36Q427.13-4.62 423.83-2.04L423.83-2.04L423.83-2.04Q420.53 0.55 417.23 0.55L417.23 0.55L417.23 0.55Q412.50 0.55 410.25-2.97L410.25-2.97L410.25-2.97Q407.99-6.49 407.99-12.32L407.99-12.32L407.77-12.32L407.77-12.32Q405.02-6.49 400.35-2.58L400.35-2.58L400.35-2.58Q395.67 1.32 390.50 1.32L390.50 1.32L390.50 1.32Q381.15 1.32 376.37-5.12L376.37-5.12L376.37-5.12Q371.58-11.55 371.58-22.33L371.58-22.33L371.58-22.33Q371.58-30.91 375.43-38.45L375.43-38.45L375.43-38.45Q379.28-45.98 385.94-50.49L385.94-50.49L385.94-50.49Q392.59-55 400.62-55L400.62-55Z" fill="url(#editing-shadow-gradient1)"></path></g></g></g></g><g><g transform="translate(-215.82000494003296, 46.75)"><path d="M42.68-78.65L42.68-78.65Q53.13-78.65 59.79-72.98L59.79-72.98L59.79-72.98Q66.44-67.32 66.44-55.99L66.44-55.99L66.44-55.99Q66.44-48.62 62.42-42.08L62.42-42.08L62.42-42.08Q58.41-35.53 51.81-30.75L51.81-30.75L51.81-30.75Q45.21-25.96 37.51-23.87L37.51-23.87L49.50-9.24L49.50-9.24Q52.69-6.27 55.88-6.27L55.88-6.27L55.88-6.27Q58.52-6.27 61.27-8.25L61.27-8.25L61.27-8.25Q64.02-10.23 66.88-13.09L66.88-13.09L68.53-11.66L68.53-11.66Q68.09-11.11 65.17-7.21L65.17-7.21L65.17-7.21Q62.26-3.30 58.47-0.77L58.47-0.77L58.47-0.77Q54.67 1.76 51.04 1.76L51.04 1.76L51.04 1.76Q47.96 1.76 45.16-0.17L45.16-0.17L45.16-0.17Q42.35-2.09 39.05-6.27L39.05-6.27L25.85-22.44L26.51-25.41L26.51-25.41Q33.88-26.18 40.65-29.98L40.65-29.98L40.65-29.98Q47.41-33.77 51.59-40.04L51.59-40.04L51.59-40.04Q55.77-46.31 55.77-53.90L55.77-53.90L55.77-53.90Q55.77-62.15 50.77-67.10L50.77-67.10L50.77-67.10Q45.76-72.05 35.97-72.05L35.97-72.05L35.97-72.05Q28.38-72.05 19.96-68.47L19.96-68.47L19.96-68.47Q11.55-64.90 5.28-59.18L5.28-59.18L3.19-61.49L3.19-61.49Q11.22-68.97 21.95-73.81L21.95-73.81L21.95-73.81Q32.67-78.65 42.68-78.65L42.68-78.65ZM20.02-62.70L20.02-2.42L9.90 1.65L9.90-58.85L20.02-62.70ZM90.86-91.74L87.12-66.11L83.49-64.79L78.98-87.67L90.86-91.74ZM90.75-54.56L90.75-9.24L90.75-9.24Q90.75-7.59 91.58-6.54L91.58-6.54L91.58-6.54Q92.40-5.50 93.94-5.50L93.94-5.50L93.94-5.50Q95.15-5.50 96.64-6.60L96.64-6.60L96.64-6.60Q98.12-7.70 99.66-9.79L99.66-9.79L101.42-8.14L101.42-8.14Q98.89-3.41 95.31-1.43L95.31-1.43L95.31-1.43Q91.74 0.55 88.77 0.55L88.77 0.55L88.77 0.55Q84.81 0.55 82.67-1.98L82.67-1.98L82.67-1.98Q80.52-4.51 80.52-10.56L80.52-10.56L80.52-50.60L90.75-54.56ZM118.91-8.69L118.91-8.69Q121.55-9.90 124.96-10.45L124.96-10.45L124.96-10.45Q128.37-11 131.45-11L131.45-11L131.45-11Q133.10-11 137.06-10.78L137.06-10.78L137.06-10.78Q140.25-10.45 142.89-10.45L142.89-10.45L142.89-10.45Q149.93-10.45 155.21-12.43L155.21-12.43L146.52-0.33L146.52-0.33Q144.98 0.77 142.89 0.77L142.89 0.77L142.89 0.77Q140.69 0.77 137.78 0.22L137.78 0.22L137.78 0.22Q134.86-0.33 133.98-0.44L133.98-0.44L133.98-0.44Q127.38-1.76 124.63-1.76L124.63-1.76L124.63-1.76Q117.15-1.76 108.13 0.99L108.13 0.99L106.70-0.88L140.69-44.99L140.14-45.87L140.14-45.87Q136.40-43.89 128.15-43.89L128.15-43.89L128.15-43.89Q125.84-43.89 121.66-44.11L121.66-44.11L121.66-44.11Q118.03-44.44 113.85-44.44L113.85-44.44L113.85-44.44Q112.86-44.44 110.22-44L110.22-44L110.22-44Q107.58-43.56 106.70-43.34L106.70-43.34L115.61-55L115.61-55Q119.24-55.11 124.74-54.45L124.74-54.45L124.74-54.45Q128.59-53.90 131.89-53.90L131.89-53.90L131.89-53.90Q144.98-53.90 152.35-56.32L152.35-56.32L153.12-54.34L118.36-9.24L118.91-8.69ZM225.39-59.07L225.39-59.07Q233.20-55.44 233.20-46.09L233.20-46.09L233.20-46.09Q233.20-43.89 232.71-41.20L232.71-41.20L232.71-41.20Q232.21-38.50 231.44-36.52L231.44-36.52L216.81-1.87L216.81-1.87Q216.26 0.11 213.73 0.11L213.73 0.11L213.73 0.11Q210.87 0.11 210.21-1.98L210.21-1.98L201.19-33.33L189.42-2.20L189.42-2.20Q188.76-0.77 188.16-0.17L188.16-0.17L188.16-0.17Q187.55 0.44 186.23 0.44L186.23 0.44L186.23 0.44Q184.91 0.44 184.25-0.11L184.25-0.11L184.25-0.11Q183.59-0.66 183.15-1.65L183.15-1.65L170.83-40.26L170.83-40.26Q169.95-43.34 168.74-44.55L168.74-44.55L168.74-44.55Q167.53-45.76 165.33-45.76L165.33-45.76L165.33-45.76Q162.80-45.76 160.60-43.56L160.60-43.56L159.39-45.32L159.39-45.32Q161.81-49.72 165.17-52.36L165.17-52.36L165.17-52.36Q168.52-55 172.70-55L172.70-55L172.70-55Q174.79-55 176.11-53.57L176.11-53.57L176.11-53.57Q177.43-52.14 178.20-50.33L178.20-50.33L178.20-50.33Q178.97-48.51 180.40-44.11L180.40-44.11L189.75-14.96L199.32-40.15L195.80-52.25L206.03-56.10L217.69-14.74L224.18-30.47L224.18-30.47Q225.06-32.23 225.06-35.75L225.06-35.75L225.06-35.75Q225.06-39.82 223.03-42.95L223.03-42.95L223.03-42.95Q220.99-46.09 217.36-47.96L217.36-47.96L225.39-59.07ZM270.49-55L270.49-55Q275.88-55 280.67-52.69L280.67-52.69L280.67-52.69Q285.45-50.38 287.65-45.65L287.65-45.65L279.73-41.36L279.73-41.36Q277.97-43.89 274.89-45.92L274.89-45.92L274.89-45.92Q271.81-47.96 268.29-47.96L268.29-47.96L268.29-47.96Q262.68-47.96 258.50-45.05L258.50-45.05L258.50-45.05Q254.32-42.13 252.12-37.18L252.12-37.18L252.12-37.18Q249.92-32.23 249.92-26.18L249.92-26.18L249.92-26.18Q249.92-17.49 252.89-12.04L252.89-12.04L252.89-12.04Q255.86-6.60 262.24-6.60L262.24-6.60L262.24-6.60Q271.26-6.60 274.67-13.86L274.67-13.86L274.67-13.86Q278.08-21.12 278.08-29.70L278.08-29.70L278.08-34.65L287.76-38.72L287.76-9.79L287.76-9.79Q287.76-8.36 288.53-7.04L288.53-7.04L288.53-7.04Q289.30-5.72 290.84-5.72L290.84-5.72L290.84-5.72Q294.03-5.72 296.67-10.12L296.67-10.12L298.32-8.36L298.32-8.36Q297-4.62 293.70-2.04L293.70-2.04L293.70-2.04Q290.40 0.55 287.10 0.55L287.10 0.55L287.10 0.55Q282.37 0.55 280.12-2.97L280.12-2.97L280.12-2.97Q277.86-6.49 277.86-12.32L277.86-12.32L277.64-12.32L277.64-12.32Q274.89-6.49 270.22-2.58L270.22-2.58L270.22-2.58Q265.54 1.32 260.37 1.32L260.37 1.32L260.37 1.32Q251.02 1.32 246.24-5.12L246.24-5.12L246.24-5.12Q241.45-11.55 241.45-22.33L241.45-22.33L241.45-22.33Q241.45-30.91 245.30-38.45L245.30-38.45L245.30-38.45Q249.15-45.98 255.81-50.49L255.81-50.49L255.81-50.49Q262.46-55 270.49-55L270.49-55ZM346.94-55.99L346.94-55.99Q351.34-55.99 352.66-52.74L352.66-52.74L352.66-52.74Q353.98-49.50 353.98-43.78L353.98-43.78L353.98-40.37L353.98-9.24L353.98-9.24Q353.98-8.03 354.75-6.76L354.75-6.76L354.75-6.76Q355.52-5.50 356.95-5.50L356.95-5.50L356.95-5.50Q358.82-5.50 360.14-6.71L360.14-6.71L360.14-6.71Q361.46-7.92 362.78-9.79L362.78-9.79L364.43-8.14L364.43-8.14Q362.78-4.62 359.48-2.04L359.48-2.04L359.48-2.04Q356.18 0.55 353.21 0.55L353.21 0.55L353.21 0.55Q348.81 0.55 346.39-2.20L346.39-2.20L346.39-2.20Q343.97-4.95 343.97-10.56L343.97-10.56L343.97-39.71L343.97-39.71Q343.97-41.36 343.64-42.46L343.64-42.46L343.64-42.46Q343.31-43.56 341.99-43.56L341.99-43.56L341.99-43.56Q337.48-43.56 332.75-34.87L332.75-34.87L332.75-34.87Q328.02-26.18 324.67-15.46L324.67-15.46L324.67-15.46Q321.31-4.73 321.31-1.32L321.31-1.32L311.74 1.54L311.74-45.54L311.74-45.54Q311.74-47.08 310.92-48.34L310.92-48.34L310.92-48.34Q310.09-49.61 308.55-49.61L308.55-49.61L308.55-49.61Q305.91-49.61 302.83-44.88L302.83-44.88L301.18-46.64L301.18-46.64Q302.61-50.60 305.91-53.30L305.91-53.30L305.91-53.30Q309.21-55.99 312.51-55.99L312.51-55.99L312.51-55.99Q317.13-55.99 319.38-53.79L319.38-53.79L319.38-53.79Q321.64-51.59 321.64-47.74L321.64-47.74L321.64-18.81L322.08-18.81L322.08-18.81Q325.05-28.60 327.80-35.86L327.80-35.86L327.80-35.86Q330.55-43.12 335.50-49.55L335.50-49.55L335.50-49.55Q340.45-55.99 346.94-55.99L346.94-55.99ZM400.62-55L400.62-55Q406.01-55 410.80-52.69L410.80-52.69L410.80-52.69Q415.58-50.38 417.78-45.65L417.78-45.65L409.86-41.36L409.86-41.36Q408.10-43.89 405.02-45.92L405.02-45.92L405.02-45.92Q401.94-47.96 398.42-47.96L398.42-47.96L398.42-47.96Q392.81-47.96 388.63-45.05L388.63-45.05L388.63-45.05Q384.45-42.13 382.25-37.18L382.25-37.18L382.25-37.18Q380.05-32.23 380.05-26.18L380.05-26.18L380.05-26.18Q380.05-17.49 383.02-12.04L383.02-12.04L383.02-12.04Q385.99-6.60 392.37-6.60L392.37-6.60L392.37-6.60Q401.39-6.60 404.80-13.86L404.80-13.86L404.80-13.86Q408.21-21.12 408.21-29.70L408.21-29.70L408.21-34.65L417.89-38.72L417.89-9.79L417.89-9.79Q417.89-8.36 418.66-7.04L418.66-7.04L418.66-7.04Q419.43-5.72 420.97-5.72L420.97-5.72L420.97-5.72Q424.16-5.72 426.80-10.12L426.80-10.12L428.45-8.36L428.45-8.36Q427.13-4.62 423.83-2.04L423.83-2.04L423.83-2.04Q420.53 0.55 417.23 0.55L417.23 0.55L417.23 0.55Q412.50 0.55 410.25-2.97L410.25-2.97L410.25-2.97Q407.99-6.49 407.99-12.32L407.99-12.32L407.77-12.32L407.77-12.32Q405.02-6.49 400.35-2.58L400.35-2.58L400.35-2.58Q395.67 1.32 390.50 1.32L390.50 1.32L390.50 1.32Q381.15 1.32 376.37-5.12L376.37-5.12L376.37-5.12Q371.58-11.55 371.58-22.33L371.58-22.33L371.58-22.33Q371.58-30.91 375.43-38.45L375.43-38.45L375.43-38.45Q379.28-45.98 385.94-50.49L385.94-50.49L385.94-50.49Q392.59-55 400.62-55L400.62-55Z" fill="url(#editing-shadow-gradient2)"></path></g></g></g><style>text {
  font-size: 64px;
  font-family: Arial Black;
  dominant-baseline: central;
  text-anchor: middle;
}</style></svg>